<?xml version="1.0" standalone="no"?>
<!DOCTYPE svg PUBLIC "-//W3C//DTD SVG 20010904//EN"
 "http://www.w3.org/TR/2001/REC-SVG-20010904/DTD/svg10.dtd">
<svg version="1.0" xmlns="http://www.w3.org/2000/svg"
 width="275.000000pt" height="127.000000pt" viewBox="0 0 275.000000 127.000000"
 preserveAspectRatio="xMidYMid meet">
<g transform="translate(0.000000,127.000000) scale(0.100000,-0.100000)"
fill="#FFFFFF" stroke="none">
<path d="M1576 1005 c-17 -9 -22 -21 -24 -74 -3 -72 3 -81 59 -81 20 0 51 -3
68 -6 l31 -6 0 -198 c0 -163 3 -200 15 -210 22 -18 143 -16 162 3 12 12 15 48
14 197 0 100 3 189 8 199 7 13 24 18 68 20 31 1 63 7 70 13 8 6 13 35 13 74 0
61 -1 64 -27 71 -45 11 -434 9 -457 -2z m464 -75 l0 -60 -80 0 -80 0 0 -215 0
-215 -76 0 -75 0 3 215 3 215 -82 0 -83 0 0 60 0 60 235 0 235 0 0 -60z"/>
<path d="M2133 1012 c-12 -2 -26 -9 -32 -16 -7 -8 -11 -97 -11 -246 l-1 -234
49 -49 49 -49 183 1 c118 1 188 5 197 12 19 17 18 123 -2 139 -11 9 -57 14
-143 15 -70 2 -130 3 -134 4 -5 0 -8 90 -8 200 0 147 -3 201 -12 209 -14 10
-97 19 -135 14z m125 -237 l-3 -215 148 0 147 0 0 -60 0 -60 -177 0 -177 0
-43 42 -43 42 0 233 0 233 76 0 75 0 -3 -215z"/>
<path d="M1029 961 l-49 -48 0 -195 0 -196 33 -40 c17 -23 37 -41 44 -41 6 -1
13 -6 15 -12 3 -8 50 -11 155 -10 96 1 154 -2 158 -9 3 -5 -1 -10 -9 -10 -8 0
-24 -12 -36 -27 l-22 -28 -24 30 c-18 23 -30 29 -51 26 -16 -1 -31 -8 -34 -13
-4 -7 -9 -6 -13 1 -5 7 -42 11 -95 11 -115 0 -121 -6 -121 -122 0 -76 2 -88
25 -112 22 -24 31 -26 103 -26 43 0 83 5 89 11 8 8 13 8 17 0 12 -18 62 -12
81 9 18 20 19 20 39 1 17 -16 35 -19 96 -19 79 0 100 9 100 39 0 15 7 19 38
19 21 0 48 7 60 16 21 15 22 14 22 -18 0 -43 15 -58 57 -58 26 0 34 5 39 25 8
31 15 31 44 0 26 -28 71 -33 90 -10 11 13 15 13 33 0 15 -10 47 -15 99 -15 66
0 79 3 91 20 l14 20 18 -20 c15 -16 31 -20 88 -20 59 0 75 4 94 22 l23 21 23
-21 c19 -18 35 -22 93 -22 64 0 73 3 97 28 19 20 25 35 21 52 -3 14 -5 50 -5
80 -1 80 -22 100 -109 100 -53 0 -73 -4 -93 -21 l-26 -20 -30 22 c-26 19 -39
21 -96 17 -39 -4 -73 -12 -83 -21 -16 -15 -19 -15 -30 3 -11 17 -24 20 -101
20 -66 0 -92 -4 -101 -15 -16 -19 -39 -19 -46 0 -9 22 -155 21 -189 -1 -22
-14 -26 -14 -47 0 -27 19 -158 22 -176 4 -8 -8 -15 -8 -27 2 -20 16 -19 30 1
30 20 0 73 43 96 79 15 21 18 49 18 151 0 85 -4 130 -12 138 -9 9 -9 15 0 24
7 7 12 32 12 55 0 38 -6 50 -46 93 l-47 50 -180 0 -180 0 -48 -49z m433 -8
c29 -31 37 -47 40 -85 l3 -48 -51 0 c-41 0 -55 5 -74 25 -22 24 -30 25 -127
25 l-103 0 0 -155 0 -155 105 0 105 0 0 48 0 48 -65 -4 -65 -4 0 66 0 66 138
0 137 0 -3 -132 -3 -133 -37 -37 -36 -38 -170 0 -170 0 -38 37 -38 37 0 200 0
200 37 38 37 38 171 0 171 0 36 -37z m-110 -117 c9 -4 19 -14 22 -22 4 -11 -9
-14 -67 -14 -44 0 -78 -5 -85 -12 -16 -16 -16 -130 0 -146 7 -7 34 -12 61 -12
44 0 48 -2 45 -22 -3 -22 -8 -23 -78 -23 l-75 0 -2 127 c-2 113 -1 127 15 130
28 6 146 2 164 -6z m-162 -486 c0 -18 -7 -20 -65 -20 -58 0 -65 -2 -65 -20 0
-18 7 -20 55 -20 53 0 55 -1 55 -26 0 -26 -1 -26 -55 -22 -48 4 -55 2 -55 -14
0 -16 9 -18 65 -18 63 0 65 -1 65 -25 0 -24 -2 -25 -73 -25 -98 0 -104 8 -109
123 l-3 87 93 0 c85 0 92 -1 92 -20z m104 -12 l19 -31 26 32 c26 32 71 43 71
18 0 -7 -13 -31 -29 -52 l-29 -39 29 -37 c36 -46 38 -69 5 -69 -17 0 -31 11
-46 36 l-22 35 -25 -35 c-16 -25 -31 -36 -48 -36 -33 0 -31 17 6 68 l31 42
-31 39 c-38 48 -39 61 -3 61 20 0 33 -8 46 -32z m324 20 c7 -7 12 -35 12 -63
0 -28 -5 -56 -12 -63 -7 -7 -36 -12 -65 -12 -52 0 -53 0 -53 -30 0 -25 -4 -30
-25 -30 l-25 0 0 105 0 105 78 0 c47 0 83 -5 90 -12z m234 -5 c24 -22 23 -75
-2 -98 -19 -18 -19 -18 0 -45 27 -38 25 -50 -7 -50 -22 0 -33 9 -51 40 -31 55
-62 55 -62 0 0 -37 -2 -40 -27 -40 l-28 0 0 105 0 105 79 0 c60 0 84 -4 98
-17z m238 -3 c0 -18 -7 -20 -65 -20 -58 0 -65 -2 -65 -20 0 -18 7 -20 55 -20
53 0 55 -1 55 -26 0 -26 -1 -27 -55 -21 -50 5 -55 4 -55 -14 0 -17 7 -19 65
-19 63 0 65 -1 65 -25 0 -24 -2 -25 -72 -25 -100 0 -108 9 -108 122 l0 88 90
0 c83 0 90 -1 90 -20z m218 8 c22 -22 14 -48 -13 -48 -14 0 -25 5 -25 10 0 6
-20 10 -45 10 -38 0 -45 -3 -45 -20 0 -17 7 -20 53 -20 64 -1 87 -16 87 -60 0
-53 -23 -70 -93 -70 -65 0 -97 17 -97 52 0 19 34 26 45 8 3 -6 26 -10 51 -10
38 0 45 3 42 17 -3 14 -12 17 -51 14 -61 -3 -87 17 -87 69 0 51 14 60 95 60
42 0 76 -5 83 -12z m230 0 c19 -19 15 -48 -7 -48 -11 0 -23 5 -26 10 -3 6 -23
10 -44 10 -30 0 -40 -4 -44 -20 -5 -18 0 -20 52 -20 66 0 81 -11 81 -59 0 -54
-23 -71 -93 -71 -65 0 -97 17 -97 52 0 19 34 26 45 8 3 -5 26 -10 51 -10 36 0
44 3 44 19 0 16 -6 17 -50 13 -39 -4 -55 -1 -70 13 -26 24 -27 90 -2 104 24
15 145 14 160 -1z m-1304 -113 c-25 -38 -47 -29 -47 18 0 50 20 63 45 31 18
-22 18 -25 2 -49z m874 51 c-1 -13 3 -30 10 -38 10 -12 9 -18 -3 -28 -9 -7
-19 -10 -22 -6 -8 7 -5 75 4 89 9 14 14 7 11 -17z m-690 -26 c-2 -34 -4 -38
-15 -27 -10 10 -11 20 -4 40 15 38 22 33 19 -13z"/>
<path d="M1500 300 c0 -28 2 -30 40 -30 38 0 40 2 40 30 0 28 -2 30 -40 30
-38 0 -40 -2 -40 -30z"/>
<path d="M1730 305 c0 -22 4 -25 40 -25 36 0 40 3 40 25 0 23 -4 25 -40 25
-36 0 -40 -2 -40 -25z"/>
<path d="M516 832 c-4 -3 -68 -10 -106 -12 -14 0 -40 -14 -59 -30 -18 -17 -40
-30 -48 -30 -18 0 -53 -59 -49 -84 2 -14 -9 -29 -35 -48 -48 -35 -51 -40 -54
-101 -2 -29 -6 -67 -10 -85 -8 -35 14 -72 42 -72 7 0 13 -4 13 -8 0 -5 9 -18
20 -30 22 -24 47 -20 68 10 8 11 21 17 30 13 10 -2 48 -1 86 3 63 8 70 7 96
-15 15 -12 34 -23 42 -23 23 0 58 39 58 65 0 14 8 29 20 35 11 6 20 9 20 6 0
-2 18 0 41 5 37 9 42 7 61 -16 11 -14 27 -25 37 -25 19 0 61 40 61 58 0 7 7
12 15 12 24 0 35 35 35 119 0 74 -2 81 -26 100 -15 12 -33 21 -40 21 -7 0 -17
7 -22 16 -5 9 -12 15 -16 14 -3 0 -49 22 -101 50 -62 34 -108 52 -135 53 -23
2 -42 1 -44 -1z m220 -103 l144 -81 0 -78 c0 -60 -3 -79 -15 -84 -10 -4 -15 1
-15 15 0 11 -11 31 -25 45 -21 21 -28 23 -47 13 -31 -16 -38 -28 -38 -65 0
-30 -2 -32 -47 -37 -75 -9 -97 -4 -103 24 -7 30 -44 37 -71 13 -13 -12 -19
-30 -19 -60 l0 -42 -61 -7 c-33 -4 -105 -4 -160 0 l-99 7 0 39 c0 21 4 39 8
39 4 0 6 16 4 35 -7 57 5 82 48 106 37 21 46 37 41 76 -4 27 20 52 54 59 19 3
35 12 35 20 0 20 18 27 90 34 129 14 123 15 276 -71z m84 -208 c21 -41 3 -111
-29 -111 -26 0 -42 71 -25 114 8 22 41 20 54 -3z m-246 -53 c22 -31 20 -81 -3
-109 -19 -23 -20 -23 -38 -6 -32 31 -18 137 18 137 4 0 15 -10 23 -22z m-288
-111 c4 -4 -1 -10 -10 -13 -10 -4 -24 0 -33 9 -15 15 -14 16 10 13 15 -1 30
-6 33 -9z"/>
<path d="M595 654 c0 -74 3 -134 8 -134 4 0 7 -6 7 -14 0 -8 5 -18 10 -21 6
-4 10 44 10 137 0 127 -2 144 -18 154 -17 11 -18 4 -17 -122z"/>
<path d="M419 693 c-104 -4 -107 -4 -112 -28 l-4 -25 102 0 103 0 11 30 c5 17
9 29 8 28 -1 -1 -50 -4 -108 -5z"/>
<path d="M220 526 c0 -61 -1 -61 105 -68 l40 -3 -1 60 -1 60 -71 3 -72 3 0
-55z m113 25 c11 -1 8 -59 -4 -63 -5 -2 -28 -2 -50 0 -35 4 -39 7 -39 32 0 31
16 40 60 35 14 -2 28 -4 33 -4z"/>
<path d="M200 432 c0 -17 10 -20 88 -25 49 -4 112 -4 140 0 43 5 52 9 52 25 0
16 -4 18 -22 12 -26 -9 -211 -8 -239 1 -14 5 -19 1 -19 -13z"/>
<path d="M787 514 c-11 -11 -8 -74 3 -74 14 0 23 46 13 65 -5 8 -12 12 -16 9z"/>
<path d="M540 415 c0 -25 4 -45 10 -45 13 0 23 44 15 69 -11 36 -25 23 -25
-24z"/>
</g>
</svg>
